<?xml version="1.0" encoding="UTF-8" standalone="no"?>
<!-- Created with Inkscape (http://www.inkscape.org/) -->

<svg
   xmlns:dc="http://purl.org/dc/elements/1.1/"
   xmlns:cc="http://creativecommons.org/ns#"
   xmlns:rdf="http://www.w3.org/1999/02/22-rdf-syntax-ns#"
   xmlns:svg="http://www.w3.org/2000/svg"
   xmlns="http://www.w3.org/2000/svg"
   xmlns:sodipodi="http://sodipodi.sourceforge.net/DTD/sodipodi-0.dtd"
   xmlns:inkscape="http://www.inkscape.org/namespaces/inkscape"
   width="100"
   height="100"
   viewBox="0 0 99.999995 99.999997"
   id="svg4137"
   version="1.1"
   inkscape:version="0.91 r13725"
   sodipodi:docname="datatoolbox-icon-with-title.svg">
  <defs
     id="defs4139" />
  <sodipodi:namedview
     id="base"
     pagecolor="#ffffff"
     bordercolor="#666666"
     borderopacity="1.0"
     inkscape:pageopacity="0.0"
     inkscape:pageshadow="2"
     inkscape:zoom="1.979899"
     inkscape:cx="-42.694368"
     inkscape:cy="45.966953"
     inkscape:document-units="px"
     inkscape:current-layer="layer1"
     showgrid="false"
     units="px"
     inkscape:window-width="1440"
     inkscape:window-height="793"
     inkscape:window-x="-2"
     inkscape:window-y="0"
     inkscape:window-maximized="0" />
  <metadata
     id="metadata4142">
    <rdf:RDF>
      <cc:Work
         rdf:about="">
        <dc:format>image/svg+xml</dc:format>
        <dc:type
           rdf:resource="http://purl.org/dc/dcmitype/StillImage" />
        <dc:title></dc:title>
      </cc:Work>
    </rdf:RDF>
  </metadata>
  <g
     inkscape:label="Layer 1"
     inkscape:groupmode="layer"
     id="layer1"
     transform="translate(0,-952.36223)">
    <path
       inkscape:connector-curvature="0"
       style="opacity:1;fill:#2a5c88;fill-opacity:1;stroke:none;stroke-width:2;stroke-miterlimit:4;stroke-dasharray:none;stroke-opacity:1"
       d="m 10.585934,975.36232 c -4.7568108,0 -8.5859378,3.82914 -8.5859378,8.58594 l 0,2.90625 95.9999978,0 0,-2.90625 c 0,-4.7568 -3.82912,-8.58594 -8.58594,-8.58594 l -78.82812,0 z m -8.5859378,16.03711 0,35.37687 c 0,4.7568 3.829127,8.5859 8.5859378,8.5859 l 78.82812,0 c 4.75682,0 8.58594,-3.8291 8.58594,-8.5859 l 0,-35.37687 -38.21094,0 c 0.1347,0.3094 0.21094,0.65162 0.21094,1.01172 l 0,4.54494 c 0,1.399 -1.12633,2.5254 -2.52539,2.5254 l -14.949217,0 c -1.399062,0 -2.525391,-1.1264 -2.525391,-2.5254 l 0,-4.54494 c 0,-0.3601 0.07624,-0.70232 0.210938,-1.01172 l -38.2109378,0 z m 47.9999998,13.96287 a 10,5 0 0 1 9.999998,4.9999 10,5 0 0 1 -9.999998,5 10,5 0 0 1 -10,-5 10,5 0 0 1 10,-4.9999 z m -10,6.9999 a 10,5 0 0 0 10,5 10,5 0 0 0 9.999998,-5 l 0,5 a 10,5 0 0 1 -9.999998,5 10,5 0 0 1 -10,-5 l 0,-5 z m 0,7 a 10,5 0 0 0 10,5 10,5 0 0 0 9.999998,-5 l 0,5 a 10,5 0 0 1 -9.999998,5 10,5 0 0 1 -10,-5 l 0,-5 z"
       id="rect4685" />
    <path
       style="opacity:1;fill:#2a5c88;fill-opacity:1;stroke:none;stroke-width:2;stroke-miterlimit:4;stroke-dasharray:none;stroke-opacity:1"
       d="m 35.272351,964.40421 c -3.452108,0 -6.230469,2.77836 -6.230469,6.23046 l 0,3.10743 4.748047,0 0,-3.95899 30.000005,0 0,3.95899 5.25195,0 0,-3.10743 c 0,-3.4521 -2.77836,-6.23046 -6.23047,-6.23046 l -27.539063,0 z"
       id="rect4687"
       inkscape:connector-curvature="0" />
    <g
       id="g5242"
       transform="matrix(0.62431868,0,0,0.62431868,5.1322212,388.16718)"
       style="fill:#2a5c88;fill-opacity:1">
      <path
         id="path5225"
         transform="translate(0,952.36223)"
         d="m 10.177734,-42.902344 a 12.678572,12.678572 0 0 0 -4.0488278,0.679688 l 7.7167968,7.716797 -7.8593749,7.861328 -7.7617187,-7.761719 A 12.678572,12.678572 0 0 0 -2.5,-30.222656 12.678572,12.678572 0 0 0 10.177734,-17.544922 12.678572,12.678572 0 0 0 22.857422,-30.222656 12.678572,12.678572 0 0 0 10.177734,-42.902344 Z m 3.730469,8.357422 -1.814453,6.041016 -6.1425781,1.90039 7.9570311,-7.941406 z"
         style="opacity:1;fill:#2a5c88;fill-opacity:1;stroke:none;stroke-width:2;stroke-miterlimit:4;stroke-dasharray:none;stroke-opacity:1"
         inkscape:connector-curvature="0" />
      <rect
         transform="matrix(0.70568042,0.70853027,-0.72766587,0.68593176,0,0)"
         ry="2.5081069"
         y="638.13849"
         x="685.28619"
         height="11.03566"
         width="32.993069"
         id="rect5240"
         style="opacity:1;fill:#2a5c88;fill-opacity:1;stroke:none;stroke-width:2;stroke-miterlimit:4;stroke-dasharray:none;stroke-opacity:1" />
    </g>
    <text
       xml:space="preserve"
       style="font-style:normal;font-weight:normal;font-size:14.03989887px;line-height:125%;font-family:sans-serif;letter-spacing:0px;word-spacing:0px;fill:#2a5c88;fill-opacity:1;stroke:none;stroke-width:1px;stroke-linecap:butt;stroke-linejoin:miter;stroke-opacity:1"
       x="-0.45246151"
       y="1048.1908"
       id="text4837"
       sodipodi:linespacing="125%"><tspan
         sodipodi:role="line"
         id="tspan4839"
         x="-0.45246151"
         y="1048.1908"
         style="font-style:normal;font-variant:normal;font-weight:bold;font-stretch:normal;font-family:Courier;-inkscape-font-specification:'Courier Bold'">Data Toolbox</tspan></text>
  </g>
  <style
     id="style4830"
     type="text/css">
	.st0{fill:#333333;}
</style>
  <style
     id="style4998"
     type="text/css">
	.st0{fill:#333333;}
</style>
</svg>
