<?xml version="1.0" encoding="UTF-8" standalone="no"?>
<svg
   xmlns:dc="http://purl.org/dc/elements/1.1/"
   xmlns:cc="http://creativecommons.org/ns#"
   xmlns:rdf="http://www.w3.org/1999/02/22-rdf-syntax-ns#"
   xmlns:svg="http://www.w3.org/2000/svg"
   xmlns="http://www.w3.org/2000/svg"
   version="1.1"
   id="svg2"
   viewBox="0 0 48 48"
   height="48"
   width="48">
  <defs
     id="defs4" />
  <metadata
     id="metadata7">
    <rdf:RDF>
      <cc:Work
         rdf:about="">
        <dc:format>image/svg+xml</dc:format>
        <dc:type
           rdf:resource="http://purl.org/dc/dcmitype/StillImage" />
        <dc:title></dc:title>
      </cc:Work>
    </rdf:RDF>
  </metadata>
  <g
     transform="translate(0,-1004.3622)"
     id="layer1">
    <g
       transform="translate(-19.643102,1022.4601)"
       id="g4210"
       style="fill:#000000">
      <path
         style="fill:#ffffff;fill-opacity:1"
         d="m 23.643102,17.9021 20,0 0,-8.0000002 -20,0 z m 4,-6 4,0 0,4 -4,0 z m -4,-26 0,7.9999996 40,0 0,-7.9999996 z m 8,5.9999996 -4,0 0,-3.9999996 4,0 z m -8,14 40,0 0,-8 -40,0 z m 4,-5.99999995 4,0 0,3.99999995 -4,0 z"
         id="path4202" />
      <rect
         y="11.902099"
         x="47.643101"
         height="12"
         width="10"
         id="rect4233"
         style="opacity:1;fill:#ffffff;fill-opacity:1;stroke:none;stroke-width:1;stroke-linecap:butt;stroke-linejoin:round;stroke-miterlimit:4;stroke-dasharray:none;stroke-opacity:1" />
      <path
         transform="matrix(1.2071515,0,0,1.7423731,10.919578,-18.25269)"
         d="m 35.392015,26.489614 0,-11.478598 9.940757,5.739299 z"
         id="path4235"
         style="opacity:1;fill:#ffffff;fill-opacity:1;stroke:none;stroke-width:1;stroke-linecap:butt;stroke-linejoin:round;stroke-miterlimit:4;stroke-dasharray:none;stroke-opacity:1" />
    </g>
  </g>
</svg>
