<?xml version="1.0" encoding="UTF-8" standalone="no"?>
<svg
   xmlns:dc="http://purl.org/dc/elements/1.1/"
   xmlns:cc="http://creativecommons.org/ns#"
   xmlns:rdf="http://www.w3.org/1999/02/22-rdf-syntax-ns#"
   xmlns:svg="http://www.w3.org/2000/svg"
   xmlns="http://www.w3.org/2000/svg"
   xmlns:sodipodi="http://sodipodi.sourceforge.net/DTD/sodipodi-0.dtd"
   xmlns:inkscape="http://www.inkscape.org/namespaces/inkscape"
   height="48"
   viewBox="0 0 48 48"
   width="48"
   id="svg2"
   version="1.1"
   inkscape:version="0.91 r13725"
   sodipodi:docname="dump.pres.svg"
   style="fill:#000000">
  <metadata
     id="metadata12">
    <rdf:RDF>
      <cc:Work
         rdf:about="">
        <dc:format>image/svg+xml</dc:format>
        <dc:type
           rdf:resource="http://purl.org/dc/dcmitype/StillImage" />
        <dc:title />
      </cc:Work>
    </rdf:RDF>
  </metadata>
  <defs
     id="defs10" />
  <sodipodi:namedview
     pagecolor="#ffffff"
     bordercolor="#666666"
     borderopacity="1"
     objecttolerance="10"
     gridtolerance="10"
     guidetolerance="10"
     inkscape:pageopacity="0"
     inkscape:pageshadow="2"
     inkscape:window-width="1440"
     inkscape:window-height="763"
     id="namedview8"
     showgrid="false"
     inkscape:zoom="6.9532165"
     inkscape:cx="13.194097"
     inkscape:cy="22.256148"
     inkscape:window-x="0"
     inkscape:window-y="0"
     inkscape:window-maximized="0"
     inkscape:current-layer="g4423" />
  <path
     d="m 4,36 18,0 0,-8 -18,0 z m 4,-6 4,0 0,4 -4,0 z M 4,4 l 0,8 40,0 0,-8 z m 8,6 -4,0 0,-4 4,0 z m -8,14 40,0 0,-8 -40,0 z m 4,-6 4,0 0,4 -4,0 z"
     id="path6"
     inkscape:connector-curvature="0"
     style="fill:#ffffff;fill-opacity:1"
     sodipodi:nodetypes="cccccccccccccccccccccccccccccc" />
  <g
     style="fill:#000000;fill-opacity:1"
     id="g4423"
     transform="translate(-2.8474576,18.610169)">
    <path
       id="path4415"
       d="m 42.403014,7.389829 -13.333334,0 c -1.233332,0 -2.222222,0.999998 -2.222222,2.222222 l 0,15.555556 c 0,1.222224 0.98889,2.222224 2.222222,2.222224 l 15.555556,0 c 1.222222,0 2.222222,-1 2.222222,-2.222224 l 0,-13.333334 -4.444444,-4.444442 z m -5.555556,17.777778 c -1.844444,0 -3.333332,-1.488892 -3.333332,-3.333334 0,-1.844442 1.488888,-3.33333 3.333332,-3.33333 1.844444,0 3.333332,1.488888 3.333332,3.33333 0,1.844442 -1.488888,3.333334 -3.333332,3.333334 z m 3.333332,-11.11111 -11.11111,0 0,-4.444444 11.11111,0 0,4.444444 z"
       inkscape:connector-curvature="0"
       style="fill:#ffffff;fill-opacity:1" />
  </g>
</svg>
