<?xml version="1.0" encoding="UTF-8" standalone="no"?>
<!-- Created with Inkscape (http://www.inkscape.org/) -->

<svg
   xmlns:dc="http://purl.org/dc/elements/1.1/"
   xmlns:cc="http://creativecommons.org/ns#"
   xmlns:rdf="http://www.w3.org/1999/02/22-rdf-syntax-ns#"
   xmlns:svg="http://www.w3.org/2000/svg"
   xmlns="http://www.w3.org/2000/svg"
   xmlns:sodipodi="http://sodipodi.sourceforge.net/DTD/sodipodi-0.dtd"
   xmlns:inkscape="http://www.inkscape.org/namespaces/inkscape"
   width="100"
   height="100"
   viewBox="0 0 100 100"
   id="svg4214"
   version="1.1"
   inkscape:version="0.91 r13725"
   sodipodi:docname="export-icon.svg">
  <defs
     id="defs4216" />
  <sodipodi:namedview
     id="base"
     pagecolor="#ffffff"
     bordercolor="#666666"
     borderopacity="1.0"
     inkscape:pageopacity="0.0"
     inkscape:pageshadow="2"
     inkscape:zoom="5.6"
     inkscape:cx="26.069882"
     inkscape:cy="56.878589"
     inkscape:document-units="px"
     inkscape:current-layer="layer1"
     showgrid="false"
     units="px"
     inkscape:window-width="1436"
     inkscape:window-height="855"
     inkscape:window-x="27"
     inkscape:window-y="0"
     inkscape:window-maximized="0" />
  <metadata
     id="metadata4219">
    <rdf:RDF>
      <cc:Work
         rdf:about="">
        <dc:format>image/svg+xml</dc:format>
        <dc:type
           rdf:resource="http://purl.org/dc/dcmitype/StillImage" />
        <dc:title></dc:title>
      </cc:Work>
    </rdf:RDF>
  </metadata>
  <g
     inkscape:label="Layer 1"
     inkscape:groupmode="layer"
     id="layer1"
     transform="translate(0,-952.36216)">
    <path
       style="opacity:1;fill:#000000;fill-opacity:1;stroke:none;stroke-width:2;stroke-miterlimit:4;stroke-dasharray:none;stroke-opacity:1"
       d="M 6.3796875,957.36216 C 2.8457678,957.36216 0,961.149 0,965.85239 l 0,73.01951 c 0,4.7034 2.8457678,8.4903 6.3796875,8.4903 l 67.2406255,0 c 3.533919,0 6.379687,-3.7869 6.379687,-8.4903 l 0,-73.01951 c 0,-4.70339 -2.845768,-8.49023 -6.379687,-8.49023 l -67.2406255,0 z m 9.0734375,8.99999 49.09375,0 c 4.128716,0 7.453125,3.856 7.453125,8.64667 l 0,54.70668 c 0,4.7907 -3.324409,8.6467 -7.453125,8.6467 l -49.09375,0 C 11.324409,1038.3622 8,1034.5062 8,1029.7155 l 0,-54.70668 c 0,-4.79067 3.324409,-8.64667 7.453125,-8.64667 z"
       id="rect4764"
       inkscape:connector-curvature="0" />
    <rect
       style="opacity:1;fill:#000000;fill-opacity:1;stroke:none;stroke-width:2;stroke-miterlimit:4;stroke-dasharray:none;stroke-opacity:1"
       id="rect4794"
       width="30"
       height="30"
       x="50"
       y="957.36212"
       rx="9.485076"
       ry="10.088661" />
  </g>
</svg>
