<?xml version="1.0" encoding="UTF-8" standalone="no"?>
<!-- Created with Inkscape (http://www.inkscape.org/) -->

<svg
   xmlns:dc="http://purl.org/dc/elements/1.1/"
   xmlns:cc="http://creativecommons.org/ns#"
   xmlns:rdf="http://www.w3.org/1999/02/22-rdf-syntax-ns#"
   xmlns:svg="http://www.w3.org/2000/svg"
   xmlns="http://www.w3.org/2000/svg"
   xmlns:sodipodi="http://sodipodi.sourceforge.net/DTD/sodipodi-0.dtd"
   xmlns:inkscape="http://www.inkscape.org/namespaces/inkscape"
   width="100"
   height="100"
   viewBox="0 0 100 100"
   id="svg4214"
   version="1.1"
   inkscape:version="0.91 r13725"
   sodipodi:docname="export-icon.svg">
  <defs
     id="defs4216" />
  <sodipodi:namedview
     id="base"
     pagecolor="#ffffff"
     bordercolor="#666666"
     borderopacity="1.0"
     inkscape:pageopacity="0.0"
     inkscape:pageshadow="2"
     inkscape:zoom="5.6"
     inkscape:cx="50.25833"
     inkscape:cy="55.341131"
     inkscape:document-units="px"
     inkscape:current-layer="layer1"
     showgrid="false"
     units="px"
     inkscape:window-width="1436"
     inkscape:window-height="855"
     inkscape:window-x="27"
     inkscape:window-y="0"
     inkscape:window-maximized="0" />
  <metadata
     id="metadata4219">
    <rdf:RDF>
      <cc:Work
         rdf:about="">
        <dc:format>image/svg+xml</dc:format>
        <dc:type
           rdf:resource="http://purl.org/dc/dcmitype/StillImage" />
        <dc:title></dc:title>
      </cc:Work>
    </rdf:RDF>
  </metadata>
  <g
     inkscape:label="Layer 1"
     inkscape:groupmode="layer"
     id="layer1"
     transform="translate(0,-952.36216)">
    <path
       style="opacity:1;fill:#000000;fill-opacity:1;stroke:none;stroke-width:2;stroke-miterlimit:4;stroke-dasharray:none;stroke-opacity:1"
       d="M 6.3789062 5 C 2.8449865 5 5.9211895e-16 8.7868444 0 13.490234 L 0 86.509766 C 0 91.213166 2.8449865 95 6.3789062 95 L 73.621094 95 C 77.155013 95 80 91.213166 80 86.509766 L 80 26.310547 L 58.689453 5 L 6.3789062 5 z M 15.453125 14 L 64.546875 14 C 68.675591 14 72 17.855814 72 22.646484 L 72 77.353516 C 72 82.144216 68.675591 86 64.546875 86 L 15.453125 86 C 11.324409 86 8 82.144216 8 77.353516 L 8 22.646484 C 8 17.855814 11.324409 14 15.453125 14 z "
       transform="translate(0,952.36216)"
       id="rect4764" />
    <path
       style="opacity:1;fill:#000000;fill-opacity:1;stroke:none;stroke-width:2;stroke-miterlimit:4;stroke-dasharray:none;stroke-opacity:1"
       d="M 59.070312 5.0234375 C 54.010685 5.2541795 50 9.647498 50 15.087891 L 50 24.912109 C 50 30.501228 54.229643 35 59.484375 35 L 70.515625 35 C 75.454355 35 79.485821 31.0245 79.953125 25.90625 L 59.070312 5.0234375 z "
       transform="translate(0,952.36216)"
       id="rect4794" />
  </g>
</svg>
