<?xml version="1.0" encoding="UTF-8" standalone="no"?>
<!-- Created with Inkscape (http://www.inkscape.org/) -->

<svg
   xmlns:dc="http://purl.org/dc/elements/1.1/"
   xmlns:cc="http://creativecommons.org/ns#"
   xmlns:rdf="http://www.w3.org/1999/02/22-rdf-syntax-ns#"
   xmlns:svg="http://www.w3.org/2000/svg"
   xmlns="http://www.w3.org/2000/svg"
   xmlns:sodipodi="http://sodipodi.sourceforge.net/DTD/sodipodi-0.dtd"
   xmlns:inkscape="http://www.inkscape.org/namespaces/inkscape"
   width="100"
   height="100"
   viewBox="0 0 100 100"
   id="svg4214"
   version="1.1"
   inkscape:version="0.91 r13725"
   sodipodi:docname="export-icon.svg">
  <defs
     id="defs4216" />
  <sodipodi:namedview
     id="base"
     pagecolor="#ffffff"
     bordercolor="#666666"
     borderopacity="1.0"
     inkscape:pageopacity="0.0"
     inkscape:pageshadow="2"
     inkscape:zoom="5.6"
     inkscape:cx="40.355597"
     inkscape:cy="49.110596"
     inkscape:document-units="px"
     inkscape:current-layer="layer1"
     showgrid="false"
     units="px"
     inkscape:window-width="1436"
     inkscape:window-height="855"
     inkscape:window-x="27"
     inkscape:window-y="0"
     inkscape:window-maximized="0" />
  <metadata
     id="metadata4219">
    <rdf:RDF>
      <cc:Work
         rdf:about="">
        <dc:format>image/svg+xml</dc:format>
        <dc:type
           rdf:resource="http://purl.org/dc/dcmitype/StillImage" />
        <dc:title></dc:title>
      </cc:Work>
    </rdf:RDF>
  </metadata>
  <g
     inkscape:label="Layer 1"
     inkscape:groupmode="layer"
     id="layer1"
     transform="translate(0,-952.36216)">
    <path
       style="opacity:1;fill:#000000;fill-opacity:1;stroke:none;stroke-width:2;stroke-miterlimit:4;stroke-dasharray:none;stroke-opacity:1"
       d="M 7.9746094 0 C 3.5572097 0 0 4.2076021 0 9.4335938 L 0 90.566406 C 0 95.792398 3.5572097 100 7.9746094 100 L 92.025391 100 C 96.44279 100 100 95.792398 100 90.566406 L 100 9.4335938 C 100 4.2076021 96.44279 0 92.025391 0 L 7.9746094 0 z M 19.316406 10 L 80.683594 10 C 85.844489 10 90 14.284452 90 19.607422 L 90 80.392578 C 90 85.715548 85.844489 90 80.683594 90 L 19.316406 90 C 14.155511 90 10 85.715548 10 80.392578 L 10 19.607422 C 10 14.284452 14.155511 10 19.316406 10 z "
       transform="translate(0,952.36216)"
       id="rect4764" />
  </g>
</svg>
