<?xml version="1.0" encoding="UTF-8" standalone="no"?>
<svg
   xmlns:dc="http://purl.org/dc/elements/1.1/"
   xmlns:cc="http://creativecommons.org/ns#"
   xmlns:rdf="http://www.w3.org/1999/02/22-rdf-syntax-ns#"
   xmlns:svg="http://www.w3.org/2000/svg"
   xmlns="http://www.w3.org/2000/svg"
   version="1.1"
   id="svg2"
   viewBox="0 0 24 24"
   height="24"
   width="24">
  <defs
     id="defs4" />
  <metadata
     id="metadata7">
    <rdf:RDF>
      <cc:Work
         rdf:about="">
        <dc:format>image/svg+xml</dc:format>
        <dc:type
           rdf:resource="http://purl.org/dc/dcmitype/StillImage" />
        <dc:title></dc:title>
      </cc:Work>
    </rdf:RDF>
  </metadata>
  <g
     transform="translate(0,-1028.3622)"
     id="layer1">
    <path
       style="fill:none;fill-rule:evenodd;stroke:#000000;stroke-width:2.01073027;stroke-linecap:butt;stroke-linejoin:miter;stroke-miterlimit:4;stroke-dasharray:none;stroke-opacity:1"
       d="m 4.0258666,1040.2715 c 0,0 1.865013,-0.048 2.412095,0.5108 1.9845062,2.0305 -1.5748644,5.8519 0.4096419,7.8827 0.6007176,0.6146 2.1389867,0.5946 2.1389867,0.5946"
       id="path4140" />
    <path
       id="path4148"
       d="m 4.0258666,1040.3557 c 0,0 1.865013,0.048 2.412095,-0.5108 1.9845062,-2.0305 -1.5748644,-5.8519 0.4096419,-7.8827 0.6007176,-0.6146 2.1389867,-0.5946 2.1389867,-0.5946"
       style="fill:none;fill-rule:evenodd;stroke:#000000;stroke-width:2.01073027;stroke-linecap:butt;stroke-linejoin:miter;stroke-miterlimit:4;stroke-dasharray:none;stroke-opacity:1" />
    <path
       id="path4150"
       d="m 19.973794,1040.2715 c 0,0 -1.865013,-0.048 -2.412095,0.5108 -1.984506,2.0305 1.574864,5.8519 -0.409642,7.8827 -0.600718,0.6146 -2.138987,0.5946 -2.138987,0.5946"
       style="fill:none;fill-rule:evenodd;stroke:#000000;stroke-width:2.01073027;stroke-linecap:butt;stroke-linejoin:miter;stroke-miterlimit:4;stroke-dasharray:none;stroke-opacity:1" />
    <path
       style="fill:none;fill-rule:evenodd;stroke:#000000;stroke-width:2.01073027;stroke-linecap:butt;stroke-linejoin:miter;stroke-miterlimit:4;stroke-dasharray:none;stroke-opacity:1"
       d="m 19.973794,1040.3557 c 0,0 -1.865013,0.048 -2.412095,-0.5108 -1.984506,-2.0305 1.574864,-5.8519 -0.409642,-7.8827 -0.600718,-0.6146 -2.138987,-0.5946 -2.138987,-0.5946"
       id="path4152" />
  </g>
</svg>
