<?xml version="1.0" encoding="UTF-8" standalone="no"?>
<svg
   xmlns:dc="http://purl.org/dc/elements/1.1/"
   xmlns:cc="http://creativecommons.org/ns#"
   xmlns:rdf="http://www.w3.org/1999/02/22-rdf-syntax-ns#"
   xmlns:svg="http://www.w3.org/2000/svg"
   xmlns="http://www.w3.org/2000/svg"
   version="1.1"
   id="svg2"
   width="24"
   viewBox="0 0 24 24"
   height="24"
   fill="#000000">
  <metadata
     id="metadata12">
    <rdf:RDF>
      <cc:Work
         rdf:about="">
        <dc:format>image/svg+xml</dc:format>
        <dc:type
           rdf:resource="http://purl.org/dc/dcmitype/StillImage" />
        <dc:title></dc:title>
      </cc:Work>
    </rdf:RDF>
  </metadata>
  <defs
     id="defs10" />
  <path
     id="path4"
     fill="none"
     d="M0 0h24v24H0z" />
  <path
     id="path6"
     d="m 2,18 9,0 0,-4 -9,0 z m 2,-3 2,0 0,2 -2,0 z M 2,2 2,6 22,6 22,2 Z M 6,5 4,5 4,3 6,3 Z M 2,12 22,12 22,8 2,8 Z m 2,-3 2,0 0,2 -2,0 z" />
  <g
     transform="translate(-2.8474576,-5.3898305)"
     id="g4423"
     style="fill:#000000">
    <path
       style="fill:none"
       d="M 0,0 24,0 24,24 0,24 Z"
       id="path4413" />
    <path
       d="m 22.625236,18.38983 -6.666667,0 c -0.616666,0 -1.111111,0.499999 -1.111111,1.111111 l 0,7.777778 c 0,0.611112 0.494445,1.111112 1.111111,1.111112 l 7.777778,0 c 0.611111,0 1.111111,-0.5 1.111111,-1.111112 l 0,-6.666667 -2.222222,-2.222221 z m -2.777778,8.888889 c -0.922222,0 -1.666666,-0.744446 -1.666666,-1.666667 0,-0.922221 0.744444,-1.666665 1.666666,-1.666665 0.922222,0 1.666666,0.744444 1.666666,1.666665 0,0.922221 -0.744444,1.666667 -1.666666,1.666667 z m 1.666666,-5.555555 -5.555555,0 0,-2.222222 5.555555,0 0,2.222222 z"
       id="path4415" />
  </g>
</svg>
