<?xml version="1.0" encoding="UTF-8" standalone="no"?>
<svg
   xmlns:dc="http://purl.org/dc/elements/1.1/"
   xmlns:cc="http://creativecommons.org/ns#"
   xmlns:rdf="http://www.w3.org/1999/02/22-rdf-syntax-ns#"
   xmlns:svg="http://www.w3.org/2000/svg"
   xmlns="http://www.w3.org/2000/svg"
   version="1.1"
   id="svg2"
   viewBox="0 0 24 24"
   height="24"
   width="24">
  <defs
     id="defs4" />
  <metadata
     id="metadata7">
    <rdf:RDF>
      <cc:Work
         rdf:about="">
        <dc:format>image/svg+xml</dc:format>
        <dc:type
           rdf:resource="http://purl.org/dc/dcmitype/StillImage" />
        <dc:title></dc:title>
      </cc:Work>
    </rdf:RDF>
  </metadata>
  <g
     transform="translate(0,-1028.3622)"
     id="layer1">
    <g
       transform="translate(-19.643102,1022.4601)"
       id="g4210"
       style="fill:#000000">
      <path
         d="m 21.643102,23.9021 10,0 0,-4 -10,0 z m 2,-3 2,0 0,2 -2,0 z m -2,-12.9999998 0,3.9999998 20,0 0,-3.9999998 z m 4,2.9999998 -2,0 0,-1.9999998 2,0 z m -4,7 20,0 0,-4 -20,0 z m 2,-3 2,0 0,2 -2,0 z"
         id="path4202" />
      <g
         transform="matrix(-1,0,0,-1,76.286203,47.804201)"
         id="g4156">
        <rect
           style="opacity:1;fill:#000000;fill-opacity:1;stroke:none;stroke-width:1;stroke-linecap:butt;stroke-linejoin:round;stroke-miterlimit:4;stroke-dasharray:none;stroke-opacity:1"
           id="rect4233"
           width="5"
           height="6"
           x="33.643101"
           y="20.9021" />
        <path
           style="opacity:1;fill:#000000;fill-opacity:1;stroke:none;stroke-width:1;stroke-linecap:butt;stroke-linejoin:round;stroke-miterlimit:4;stroke-dasharray:none;stroke-opacity:1"
           id="path4235"
           d="m 35.392015,26.489614 0,-11.478598 9.940757,5.739299 z"
           transform="matrix(0.60357575,0,0,0.87118655,15.28134,5.8247051)" />
      </g>
    </g>
  </g>
</svg>
